<mxfile host="app.diagrams.net" modified="2022-12-28T18:12:43.663Z" agent="5.0 (Windows NT 10.0; Win64; x64) AppleWebKit/537.36 (KHTML, like Gecko) Chrome/108.0.0.0 Safari/537.36" etag="TSZcrYS4mz2G81EGSy1h" version="20.7.4" type="github">
  <diagram id="0ZKwKbu3QaYxbFSNgXZS" name="Page-1">
    <mxGraphModel dx="1434" dy="764" grid="0" gridSize="10" guides="1" tooltips="1" connect="1" arrows="1" fold="1" page="1" pageScale="1" pageWidth="1169" pageHeight="827" math="0" shadow="0">
      <root>
        <mxCell id="0" />
        <mxCell id="1" parent="0" />
        <mxCell id="pmbYQ9uAFB6TgT76jHtj-11" style="edgeStyle=orthogonalEdgeStyle;rounded=0;orthogonalLoop=1;jettySize=auto;html=1;entryX=0;entryY=0.5;entryDx=0;entryDy=0;" parent="1" source="pmbYQ9uAFB6TgT76jHtj-2" target="pmbYQ9uAFB6TgT76jHtj-3" edge="1">
          <mxGeometry relative="1" as="geometry" />
        </mxCell>
        <mxCell id="pmbYQ9uAFB6TgT76jHtj-62" style="edgeStyle=orthogonalEdgeStyle;rounded=0;orthogonalLoop=1;jettySize=auto;html=1;exitX=0.5;exitY=1;exitDx=0;exitDy=0;entryX=0.5;entryY=0;entryDx=0;entryDy=0;fontFamily=Helvetica;fontSize=12;" parent="1" source="pmbYQ9uAFB6TgT76jHtj-2" target="pmbYQ9uAFB6TgT76jHtj-6" edge="1">
          <mxGeometry relative="1" as="geometry" />
        </mxCell>
        <mxCell id="pmbYQ9uAFB6TgT76jHtj-2" value="¿Falta información?" style="rhombus;whiteSpace=wrap;html=1;" parent="1" vertex="1">
          <mxGeometry x="225" y="120" width="160" height="80" as="geometry" />
        </mxCell>
        <mxCell id="pmbYQ9uAFB6TgT76jHtj-3" value="Siguiente iteración" style="rounded=1;whiteSpace=wrap;html=1;fontFamily=Helvetica;fontSize=12;" parent="1" vertex="1">
          <mxGeometry x="461" y="130" width="120" height="60" as="geometry" />
        </mxCell>
        <mxCell id="pmbYQ9uAFB6TgT76jHtj-5" value="No" style="text;html=1;strokeColor=none;fillColor=none;align=center;verticalAlign=middle;whiteSpace=wrap;rounded=0;" parent="1" vertex="1">
          <mxGeometry x="406" y="130" width="30" height="30" as="geometry" />
        </mxCell>
        <mxCell id="pmbYQ9uAFB6TgT76jHtj-10" style="edgeStyle=orthogonalEdgeStyle;rounded=0;orthogonalLoop=1;jettySize=auto;html=1;entryX=0;entryY=0.5;entryDx=0;entryDy=0;" parent="1" source="pmbYQ9uAFB6TgT76jHtj-6" target="pmbYQ9uAFB6TgT76jHtj-9" edge="1">
          <mxGeometry relative="1" as="geometry" />
        </mxCell>
        <mxCell id="pmbYQ9uAFB6TgT76jHtj-6" value="Llamada a &lt;i&gt;LocateSupplier&lt;/i&gt;" style="rounded=0;whiteSpace=wrap;html=1;fontFamily=Helvetica;fontSize=12;" parent="1" vertex="1">
          <mxGeometry x="245" y="250" width="120" height="60" as="geometry" />
        </mxCell>
        <mxCell id="pmbYQ9uAFB6TgT76jHtj-8" value="Sí" style="text;html=1;strokeColor=none;fillColor=none;align=center;verticalAlign=middle;whiteSpace=wrap;rounded=0;" parent="1" vertex="1">
          <mxGeometry x="275" y="210" width="30" height="30" as="geometry" />
        </mxCell>
        <mxCell id="pmbYQ9uAFB6TgT76jHtj-47" style="edgeStyle=orthogonalEdgeStyle;rounded=0;orthogonalLoop=1;jettySize=auto;html=1;exitX=1;exitY=0.5;exitDx=0;exitDy=0;entryX=0;entryY=0.5;entryDx=0;entryDy=0;fontFamily=Helvetica;fontSize=12;" parent="1" source="pmbYQ9uAFB6TgT76jHtj-9" target="pmbYQ9uAFB6TgT76jHtj-29" edge="1">
          <mxGeometry relative="1" as="geometry" />
        </mxCell>
        <mxCell id="pmbYQ9uAFB6TgT76jHtj-57" style="edgeStyle=orthogonalEdgeStyle;rounded=0;orthogonalLoop=1;jettySize=auto;html=1;entryX=0.5;entryY=0;entryDx=0;entryDy=0;fontFamily=Helvetica;fontSize=12;" parent="1" source="pmbYQ9uAFB6TgT76jHtj-9" target="pmbYQ9uAFB6TgT76jHtj-50" edge="1">
          <mxGeometry relative="1" as="geometry" />
        </mxCell>
        <mxCell id="pmbYQ9uAFB6TgT76jHtj-9" value="¿Se ha encontrado &lt;br&gt;la información para la búsqueda?" style="rhombus;whiteSpace=wrap;html=1;" parent="1" vertex="1">
          <mxGeometry x="444" y="225" width="160" height="110" as="geometry" />
        </mxCell>
        <mxCell id="pmbYQ9uAFB6TgT76jHtj-58" style="edgeStyle=orthogonalEdgeStyle;rounded=0;orthogonalLoop=1;jettySize=auto;html=1;entryX=1;entryY=0.5;entryDx=0;entryDy=0;fontFamily=Helvetica;fontSize=12;exitX=0.5;exitY=0;exitDx=0;exitDy=0;" parent="1" source="pmbYQ9uAFB6TgT76jHtj-29" target="pmbYQ9uAFB6TgT76jHtj-3" edge="1">
          <mxGeometry relative="1" as="geometry">
            <Array as="points">
              <mxPoint x="734" y="160" />
            </Array>
          </mxGeometry>
        </mxCell>
        <mxCell id="pmbYQ9uAFB6TgT76jHtj-29" value="&lt;span style=&quot;line-height: 107%;&quot;&gt;&lt;font style=&quot;font-size: 12px;&quot;&gt;&quot;NO HAY&lt;br&gt;PART NUMBER EN LA BBDD DE F&amp;amp;H&quot;&lt;/font&gt;&lt;/span&gt;" style="rounded=1;whiteSpace=wrap;html=1;" parent="1" vertex="1">
          <mxGeometry x="674" y="250" width="120" height="60" as="geometry" />
        </mxCell>
        <mxCell id="pmbYQ9uAFB6TgT76jHtj-31" value="No" style="text;html=1;strokeColor=none;fillColor=none;align=center;verticalAlign=middle;whiteSpace=wrap;rounded=0;" parent="1" vertex="1">
          <mxGeometry x="624" y="250" width="30" height="30" as="geometry" />
        </mxCell>
        <mxCell id="pmbYQ9uAFB6TgT76jHtj-60" style="edgeStyle=orthogonalEdgeStyle;rounded=0;orthogonalLoop=1;jettySize=auto;html=1;fontFamily=Helvetica;fontSize=12;" parent="1" source="pmbYQ9uAFB6TgT76jHtj-33" target="pmbYQ9uAFB6TgT76jHtj-39" edge="1">
          <mxGeometry relative="1" as="geometry" />
        </mxCell>
        <mxCell id="pmbYQ9uAFB6TgT76jHtj-65" style="edgeStyle=orthogonalEdgeStyle;rounded=0;orthogonalLoop=1;jettySize=auto;html=1;exitX=0;exitY=0.5;exitDx=0;exitDy=0;entryX=1;entryY=0.5;entryDx=0;entryDy=0;fontFamily=Helvetica;fontSize=12;" parent="1" source="pmbYQ9uAFB6TgT76jHtj-33" target="pmbYQ9uAFB6TgT76jHtj-64" edge="1">
          <mxGeometry relative="1" as="geometry" />
        </mxCell>
        <mxCell id="pmbYQ9uAFB6TgT76jHtj-33" value="¿Hay más números&lt;br&gt;de material&amp;nbsp;para la &lt;br&gt;búsqueda?" style="rhombus;whiteSpace=wrap;html=1;" parent="1" vertex="1">
          <mxGeometry x="444" y="590" width="160" height="101" as="geometry" />
        </mxCell>
        <mxCell id="pmbYQ9uAFB6TgT76jHtj-71" style="edgeStyle=orthogonalEdgeStyle;rounded=0;orthogonalLoop=1;jettySize=auto;html=1;entryX=0;entryY=0.5;entryDx=0;entryDy=0;fontFamily=Helvetica;fontSize=12;" parent="1" source="pmbYQ9uAFB6TgT76jHtj-39" target="pmbYQ9uAFB6TgT76jHtj-70" edge="1">
          <mxGeometry relative="1" as="geometry" />
        </mxCell>
        <mxCell id="pmbYQ9uAFB6TgT76jHtj-39" value="&lt;span style=&quot;line-height: 107%;&quot;&gt;&lt;font style=&quot;font-size: 12px;&quot;&gt;&quot;NO HAY&lt;br&gt;INFO EN SAP&quot;&lt;/font&gt;&lt;/span&gt;" style="rounded=1;whiteSpace=wrap;html=1;" parent="1" vertex="1">
          <mxGeometry x="464" y="730" width="120" height="60" as="geometry" />
        </mxCell>
        <mxCell id="pmbYQ9uAFB6TgT76jHtj-40" value="No" style="text;html=1;strokeColor=none;fillColor=none;align=center;verticalAlign=middle;whiteSpace=wrap;rounded=0;" parent="1" vertex="1">
          <mxGeometry x="524" y="691" width="30" height="30" as="geometry" />
        </mxCell>
        <mxCell id="pmbYQ9uAFB6TgT76jHtj-42" value="Sí" style="text;html=1;strokeColor=none;fillColor=none;align=center;verticalAlign=middle;whiteSpace=wrap;rounded=0;" parent="1" vertex="1">
          <mxGeometry x="524" y="335" width="30" height="30" as="geometry" />
        </mxCell>
        <mxCell id="pmbYQ9uAFB6TgT76jHtj-54" style="edgeStyle=orthogonalEdgeStyle;rounded=0;orthogonalLoop=1;jettySize=auto;html=1;entryX=0.5;entryY=0;entryDx=0;entryDy=0;fontFamily=Helvetica;fontSize=12;" parent="1" source="pmbYQ9uAFB6TgT76jHtj-50" target="pmbYQ9uAFB6TgT76jHtj-53" edge="1">
          <mxGeometry relative="1" as="geometry" />
        </mxCell>
        <mxCell id="pmbYQ9uAFB6TgT76jHtj-50" value="Llamada a&lt;i&gt;&amp;nbsp;&lt;br&gt;ME2M_SAP_&lt;/i&gt;&lt;br&gt;&lt;i&gt;SUPPLIER_CONTACT&lt;/i&gt;" style="rounded=0;whiteSpace=wrap;html=1;fontFamily=Helvetica;fontSize=12;" parent="1" vertex="1">
          <mxGeometry x="459" y="370" width="130" height="60" as="geometry" />
        </mxCell>
        <mxCell id="pmbYQ9uAFB6TgT76jHtj-55" style="edgeStyle=orthogonalEdgeStyle;rounded=0;orthogonalLoop=1;jettySize=auto;html=1;exitX=0.5;exitY=1;exitDx=0;exitDy=0;entryX=0.5;entryY=0;entryDx=0;entryDy=0;fontFamily=Helvetica;fontSize=12;" parent="1" source="pmbYQ9uAFB6TgT76jHtj-53" target="pmbYQ9uAFB6TgT76jHtj-33" edge="1">
          <mxGeometry relative="1" as="geometry" />
        </mxCell>
        <mxCell id="pmbYQ9uAFB6TgT76jHtj-69" style="edgeStyle=orthogonalEdgeStyle;rounded=0;orthogonalLoop=1;jettySize=auto;html=1;exitX=1;exitY=0.5;exitDx=0;exitDy=0;entryX=0;entryY=0.5;entryDx=0;entryDy=0;fontFamily=Helvetica;fontSize=12;" parent="1" source="pmbYQ9uAFB6TgT76jHtj-53" target="pmbYQ9uAFB6TgT76jHtj-79" edge="1">
          <mxGeometry relative="1" as="geometry">
            <mxPoint x="684" y="510" as="targetPoint" />
          </mxGeometry>
        </mxCell>
        <mxCell id="pmbYQ9uAFB6TgT76jHtj-53" value="¿Se ha encontrado la información?" style="rhombus;whiteSpace=wrap;html=1;" parent="1" vertex="1">
          <mxGeometry x="444" y="470" width="160" height="80" as="geometry" />
        </mxCell>
        <mxCell id="pmbYQ9uAFB6TgT76jHtj-59" value="No" style="text;html=1;align=center;verticalAlign=middle;resizable=0;points=[];autosize=1;strokeColor=none;fillColor=none;fontSize=12;fontFamily=Helvetica;" parent="1" vertex="1">
          <mxGeometry x="524" y="550" width="40" height="30" as="geometry" />
        </mxCell>
        <mxCell id="pmbYQ9uAFB6TgT76jHtj-63" value="Sí" style="text;html=1;strokeColor=none;fillColor=none;align=center;verticalAlign=middle;whiteSpace=wrap;rounded=0;" parent="1" vertex="1">
          <mxGeometry x="394" y="611" width="30" height="30" as="geometry" />
        </mxCell>
        <mxCell id="pmbYQ9uAFB6TgT76jHtj-66" style="edgeStyle=orthogonalEdgeStyle;rounded=0;orthogonalLoop=1;jettySize=auto;html=1;entryX=0;entryY=1;entryDx=0;entryDy=0;fontFamily=Helvetica;fontSize=12;" parent="1" source="pmbYQ9uAFB6TgT76jHtj-64" target="pmbYQ9uAFB6TgT76jHtj-9" edge="1">
          <mxGeometry relative="1" as="geometry">
            <Array as="points">
              <mxPoint x="304" y="350" />
              <mxPoint x="484" y="350" />
            </Array>
          </mxGeometry>
        </mxCell>
        <mxCell id="pmbYQ9uAFB6TgT76jHtj-64" value="Siguiente Part Number" style="rounded=0;whiteSpace=wrap;html=1;fontFamily=Helvetica;fontSize=12;" parent="1" vertex="1">
          <mxGeometry x="245" y="611" width="120" height="60" as="geometry" />
        </mxCell>
        <mxCell id="pmbYQ9uAFB6TgT76jHtj-67" value="Sí" style="text;html=1;strokeColor=none;fillColor=none;align=center;verticalAlign=middle;whiteSpace=wrap;rounded=0;" parent="1" vertex="1">
          <mxGeometry x="646" y="480" width="30" height="30" as="geometry" />
        </mxCell>
        <mxCell id="pmbYQ9uAFB6TgT76jHtj-70" value="Siguiente iteración" style="rounded=1;whiteSpace=wrap;html=1;fontFamily=Helvetica;fontSize=12;" parent="1" vertex="1">
          <mxGeometry x="753" y="730" width="120" height="60" as="geometry" />
        </mxCell>
        <mxCell id="pmbYQ9uAFB6TgT76jHtj-75" style="edgeStyle=orthogonalEdgeStyle;rounded=0;orthogonalLoop=1;jettySize=auto;html=1;entryX=0.5;entryY=0;entryDx=0;entryDy=0;fontFamily=Helvetica;fontSize=12;" parent="1" source="pmbYQ9uAFB6TgT76jHtj-74" target="pmbYQ9uAFB6TgT76jHtj-2" edge="1">
          <mxGeometry relative="1" as="geometry" />
        </mxCell>
        <mxCell id="pmbYQ9uAFB6TgT76jHtj-74" value="Ejecución de&lt;br&gt;SAP_InfoProveedores" style="rounded=1;whiteSpace=wrap;html=1;fontFamily=Helvetica;fontSize=12;" parent="1" vertex="1">
          <mxGeometry x="241" y="21" width="129" height="60" as="geometry" />
        </mxCell>
        <mxCell id="3hpVRjH7D4XgD4T4D8rT-2" style="edgeStyle=orthogonalEdgeStyle;rounded=0;orthogonalLoop=1;jettySize=auto;html=1;entryX=0;entryY=0.5;entryDx=0;entryDy=0;" edge="1" parent="1" source="pmbYQ9uAFB6TgT76jHtj-77" target="3hpVRjH7D4XgD4T4D8rT-1">
          <mxGeometry relative="1" as="geometry" />
        </mxCell>
        <mxCell id="pmbYQ9uAFB6TgT76jHtj-77" value="Llamada a&lt;br&gt;&lt;i&gt;RegisterInfo&lt;/i&gt;" style="rounded=0;whiteSpace=wrap;html=1;fontFamily=Helvetica;fontSize=12;" parent="1" vertex="1">
          <mxGeometry x="753" y="611" width="120" height="60" as="geometry" />
        </mxCell>
        <mxCell id="pmbYQ9uAFB6TgT76jHtj-80" style="edgeStyle=orthogonalEdgeStyle;rounded=0;orthogonalLoop=1;jettySize=auto;html=1;fontFamily=Helvetica;fontSize=12;" parent="1" source="pmbYQ9uAFB6TgT76jHtj-79" target="pmbYQ9uAFB6TgT76jHtj-77" edge="1">
          <mxGeometry relative="1" as="geometry" />
        </mxCell>
        <mxCell id="pmbYQ9uAFB6TgT76jHtj-83" style="edgeStyle=orthogonalEdgeStyle;rounded=0;orthogonalLoop=1;jettySize=auto;html=1;exitX=0.5;exitY=0;exitDx=0;exitDy=0;entryX=0.5;entryY=1;entryDx=0;entryDy=0;fontFamily=Helvetica;fontSize=12;" parent="1" source="pmbYQ9uAFB6TgT76jHtj-79" target="pmbYQ9uAFB6TgT76jHtj-82" edge="1">
          <mxGeometry relative="1" as="geometry" />
        </mxCell>
        <mxCell id="pmbYQ9uAFB6TgT76jHtj-79" value="¿La información de&lt;br&gt;SAP es congruente con la de la BB.DD.?" style="rhombus;whiteSpace=wrap;html=1;" parent="1" vertex="1">
          <mxGeometry x="718" y="465" width="190" height="90" as="geometry" />
        </mxCell>
        <mxCell id="pmbYQ9uAFB6TgT76jHtj-81" value="Sí" style="text;html=1;strokeColor=none;fillColor=none;align=center;verticalAlign=middle;whiteSpace=wrap;rounded=0;" parent="1" vertex="1">
          <mxGeometry x="784" y="570" width="30" height="30" as="geometry" />
        </mxCell>
        <mxCell id="pmbYQ9uAFB6TgT76jHtj-85" style="edgeStyle=orthogonalEdgeStyle;rounded=0;orthogonalLoop=1;jettySize=auto;html=1;entryX=1;entryY=0.5;entryDx=0;entryDy=0;fontFamily=Helvetica;fontSize=12;" parent="1" source="pmbYQ9uAFB6TgT76jHtj-82" target="pmbYQ9uAFB6TgT76jHtj-3" edge="1">
          <mxGeometry relative="1" as="geometry">
            <Array as="points">
              <mxPoint x="814" y="160" />
            </Array>
          </mxGeometry>
        </mxCell>
        <mxCell id="pmbYQ9uAFB6TgT76jHtj-82" value="&lt;span style=&quot;line-height: 107%;&quot;&gt;&lt;font style=&quot;font-size: 12px;&quot;&gt;&quot;El&amp;nbsp;nombre &lt;br&gt;del proveedor encontrado en SAP es diferente&quot;&lt;/font&gt;&lt;/span&gt;" style="rounded=1;whiteSpace=wrap;html=1;fontFamily=Helvetica;fontSize=12;" parent="1" vertex="1">
          <mxGeometry x="753" y="342" width="120" height="80" as="geometry" />
        </mxCell>
        <mxCell id="pmbYQ9uAFB6TgT76jHtj-84" value="No" style="text;html=1;strokeColor=none;fillColor=none;align=center;verticalAlign=middle;whiteSpace=wrap;rounded=0;" parent="1" vertex="1">
          <mxGeometry x="814" y="435" width="30" height="30" as="geometry" />
        </mxCell>
        <mxCell id="3hpVRjH7D4XgD4T4D8rT-4" style="edgeStyle=orthogonalEdgeStyle;rounded=0;orthogonalLoop=1;jettySize=auto;html=1;entryX=0.5;entryY=0;entryDx=0;entryDy=0;" edge="1" parent="1" source="3hpVRjH7D4XgD4T4D8rT-1" target="3hpVRjH7D4XgD4T4D8rT-3">
          <mxGeometry relative="1" as="geometry" />
        </mxCell>
        <mxCell id="3hpVRjH7D4XgD4T4D8rT-6" style="edgeStyle=orthogonalEdgeStyle;rounded=0;orthogonalLoop=1;jettySize=auto;html=1;exitX=0;exitY=1;exitDx=0;exitDy=0;" edge="1" parent="1" source="3hpVRjH7D4XgD4T4D8rT-1" target="pmbYQ9uAFB6TgT76jHtj-70">
          <mxGeometry relative="1" as="geometry">
            <Array as="points">
              <mxPoint x="977" y="702" />
              <mxPoint x="813" y="702" />
            </Array>
          </mxGeometry>
        </mxCell>
        <mxCell id="3hpVRjH7D4XgD4T4D8rT-1" value="¿Hay más líneas para &lt;br&gt;este proveedor?" style="rhombus;whiteSpace=wrap;html=1;" vertex="1" parent="1">
          <mxGeometry x="937" y="601" width="160" height="80" as="geometry" />
        </mxCell>
        <mxCell id="3hpVRjH7D4XgD4T4D8rT-5" style="edgeStyle=orthogonalEdgeStyle;rounded=0;orthogonalLoop=1;jettySize=auto;html=1;entryX=1;entryY=0.5;entryDx=0;entryDy=0;" edge="1" parent="1" source="3hpVRjH7D4XgD4T4D8rT-3" target="pmbYQ9uAFB6TgT76jHtj-70">
          <mxGeometry relative="1" as="geometry" />
        </mxCell>
        <mxCell id="3hpVRjH7D4XgD4T4D8rT-3" value="Llamada a&lt;br&gt;&lt;i&gt;FillInfo&lt;/i&gt;" style="rounded=0;whiteSpace=wrap;html=1;fontFamily=Helvetica;fontSize=12;" vertex="1" parent="1">
          <mxGeometry x="957" y="730" width="120" height="60" as="geometry" />
        </mxCell>
        <mxCell id="3hpVRjH7D4XgD4T4D8rT-7" value="No" style="text;html=1;align=center;verticalAlign=middle;resizable=0;points=[];autosize=1;strokeColor=none;fillColor=none;fontSize=12;fontFamily=Helvetica;" vertex="1" parent="1">
          <mxGeometry x="895" y="700" width="40" height="30" as="geometry" />
        </mxCell>
        <mxCell id="3hpVRjH7D4XgD4T4D8rT-8" value="Sí" style="text;html=1;strokeColor=none;fillColor=none;align=center;verticalAlign=middle;whiteSpace=wrap;rounded=0;" vertex="1" parent="1">
          <mxGeometry x="1016" y="687" width="30" height="30" as="geometry" />
        </mxCell>
      </root>
    </mxGraphModel>
  </diagram>
</mxfile>
